<svg width="163" height="48" viewBox="0 0 163 48" fill="none" xmlns="http://www.w3.org/2000/svg">
<g clip-path="url(#clip0_0_80)">
<g clip-path="url(#clip1_0_80)">
<path d="M161.825 42.3216C161.825 44.8608 159.768 46.9176 157.224 46.9176H6.661C4.1182 46.9176 2.0542 44.8608 2.0542 42.3216V5.66999C2.0542 3.13199 4.1182 1.06799 6.661 1.06799H157.223C159.768 1.06799 161.823 3.13199 161.823 5.66999L161.825 42.3216Z" fill="black"/>
<path d="M37.1398 23.7408C37.105 19.8732 40.3066 17.9916 40.453 17.904C38.6398 15.2604 35.8294 14.8992 34.8418 14.8704C32.4814 14.622 30.1918 16.2828 28.9894 16.2828C27.763 16.2828 25.9114 14.8944 23.9158 14.9352C21.3478 14.9748 18.9454 16.4616 17.6278 18.7704C14.9086 23.478 16.9366 30.396 19.5418 34.2012C20.845 36.0648 22.3678 38.1456 24.361 38.0724C26.311 37.992 27.0394 36.8292 29.3926 36.8292C31.7242 36.8292 32.4082 38.0724 34.441 38.0256C36.5338 37.992 37.8514 36.1536 39.109 34.2732C40.615 32.1372 41.2198 30.0336 41.2438 29.9256C41.1946 29.9088 37.1794 28.3764 37.1398 23.7408Z" fill="white"/>
<path d="M33.2998 12.3672C34.3486 11.0556 35.0662 9.27119 34.867 7.46039C33.349 7.52759 31.4506 8.51039 30.3574 9.79319C29.3902 10.9236 28.5262 12.7764 28.7494 14.5188C30.4546 14.646 32.2054 13.6584 33.2998 12.3672Z" fill="white"/>
<path d="M65.3602 37.8048H62.635L61.1422 33.114H55.9534L54.5314 37.8048H51.8782L57.019 21.8352H60.1942L65.3602 37.8048ZM60.6922 31.146L59.3422 26.976C59.1994 26.55 58.9318 25.5468 58.537 23.9676H58.489C58.3318 24.6468 58.0786 25.65 57.7306 26.976L56.4046 31.146H60.6922Z" fill="white"/>
<path d="M78.5806 31.9056C78.5806 33.864 78.0514 35.412 76.993 36.5484C76.045 37.56 74.8678 38.0652 73.4626 38.0652C71.9458 38.0652 70.8562 37.5204 70.1926 36.4308H70.1446V42.4968H67.5862V30.0804C67.5862 28.8492 67.5538 27.5856 67.4914 26.2896H69.7414L69.8842 28.1148H69.9322C70.7854 26.7396 72.0802 26.0532 73.8178 26.0532C75.1762 26.0532 76.3102 26.5896 77.2174 27.6636C78.127 28.7388 78.5806 30.1524 78.5806 31.9056ZM75.9742 31.9992C75.9742 30.8784 75.7222 29.9544 75.2158 29.2272C74.6626 28.4688 73.9198 28.0896 72.9886 28.0896C72.3574 28.0896 71.7838 28.3008 71.2714 28.7172C70.7578 29.1372 70.4218 29.6856 70.2646 30.3648C70.1854 30.6816 70.1458 30.9408 70.1458 31.1448V33.0648C70.1458 33.9024 70.4026 34.6092 70.9162 35.1864C71.4298 35.7636 72.097 36.0516 72.9178 36.0516C73.8814 36.0516 74.6314 35.6796 75.1678 34.938C75.7054 34.1952 75.9742 33.216 75.9742 31.9992Z" fill="white"/>
<path d="M91.825 31.9056C91.825 33.864 91.2958 35.412 90.2362 36.5484C89.2894 37.56 88.1122 38.0652 86.707 38.0652C85.1902 38.0652 84.1006 37.5204 83.4382 36.4308H83.3902V42.4968H80.8318V30.0804C80.8318 28.8492 80.7994 27.5856 80.737 26.2896H82.987L83.1298 28.1148H83.1778C84.0298 26.7396 85.3246 26.0532 87.0634 26.0532C88.4206 26.0532 89.5546 26.5896 90.4642 27.6636C91.3702 28.7388 91.825 30.1524 91.825 31.9056ZM89.2186 31.9992C89.2186 30.8784 88.9654 29.9544 88.459 29.2272C87.9058 28.4688 87.1654 28.0896 86.233 28.0896C85.6006 28.0896 85.0282 28.3008 84.5146 28.7172C84.001 29.1372 83.6662 29.6856 83.509 30.3648C83.431 30.6816 83.3902 30.9408 83.3902 31.1448V33.0648C83.3902 33.9024 83.647 34.6092 84.1582 35.1864C84.6718 35.7624 85.339 36.0516 86.1622 36.0516C87.1258 36.0516 87.8758 35.6796 88.4122 34.938C88.9498 34.1952 89.2186 33.216 89.2186 31.9992Z" fill="white"/>
<path d="M106.633 33.3264C106.633 34.6848 106.161 35.79 105.215 36.6432C104.174 37.5756 102.726 38.0412 100.865 38.0412C99.1462 38.0412 97.7686 37.71 96.7258 37.0464L97.3186 34.914C98.4418 35.5932 99.6742 35.934 101.017 35.934C101.981 35.934 102.731 35.7156 103.269 35.2812C103.806 34.8468 104.073 34.2636 104.073 33.5364C104.073 32.8884 103.853 32.3424 103.41 31.8996C102.969 31.4568 102.234 31.0452 101.207 30.6648C98.4106 29.622 97.0138 28.0944 97.0138 26.0856C97.0138 24.7728 97.5034 23.6964 98.4838 22.8588C99.4606 22.02 100.764 21.6012 102.393 21.6012C103.847 21.6012 105.054 21.8544 106.017 22.3596L105.378 24.4452C104.478 23.9556 103.46 23.7108 102.321 23.7108C101.421 23.7108 100.718 23.9328 100.214 24.3744C99.7882 24.7692 99.5746 25.2504 99.5746 25.8204C99.5746 26.4516 99.8182 26.9736 100.308 27.384C100.734 27.7632 101.508 28.1736 102.631 28.6164C104.005 29.1696 105.014 29.8164 105.663 30.558C106.31 31.2972 106.633 32.2224 106.633 33.3264Z" fill="white"/>
<path d="M115.092 28.2096H112.272V33.8004C112.272 35.2224 112.769 35.9328 113.765 35.9328C114.222 35.9328 114.601 35.8932 114.901 35.814L114.972 37.7568C114.468 37.9452 113.804 38.04 112.982 38.04C111.972 38.04 111.182 37.7316 110.612 37.116C110.045 36.4992 109.759 35.4648 109.759 34.0116V28.2072H108.079V26.2872H109.759V24.1788L112.272 23.4204V26.2872H115.092V28.2096Z" fill="white"/>
<path d="M127.815 31.9524C127.815 33.7224 127.309 35.1756 126.299 36.312C125.239 37.482 123.833 38.0652 122.079 38.0652C120.39 38.0652 119.045 37.5048 118.041 36.384C117.038 35.2632 116.537 33.8484 116.537 32.1432C116.537 30.3588 117.053 28.8972 118.088 27.7608C119.121 26.6232 120.516 26.0544 122.269 26.0544C123.959 26.0544 125.318 26.6148 126.344 27.7368C127.326 28.8252 127.815 30.2304 127.815 31.9524ZM125.161 32.0352C125.161 30.9732 124.934 30.0624 124.475 29.3028C123.938 28.3836 123.171 27.9252 122.178 27.9252C121.149 27.9252 120.368 28.3848 119.832 29.3028C119.372 30.0636 119.145 30.9888 119.145 32.0832C119.145 33.1452 119.372 34.056 119.832 34.8144C120.385 35.7336 121.158 36.192 122.155 36.192C123.132 36.192 123.899 35.724 124.452 34.7904C124.923 34.0164 125.161 33.096 125.161 32.0352Z" fill="white"/>
<path d="M136.131 28.5396C135.878 28.4928 135.608 28.4688 135.325 28.4688C134.425 28.4688 133.729 28.8084 133.239 29.4888C132.813 30.0888 132.6 30.8472 132.6 31.7628V37.8048H130.043L130.067 29.916C130.067 28.5888 130.034 27.3804 129.971 26.2908H132.199L132.293 28.494H132.363C132.633 27.7368 133.059 27.1272 133.643 26.67C134.213 26.2584 134.828 26.0532 135.492 26.0532C135.728 26.0532 135.942 26.07 136.131 26.1V28.5396Z" fill="white"/>
<path d="M147.573 31.5024C147.573 31.9608 147.543 32.3472 147.48 32.6628H139.805C139.835 33.8004 140.205 34.6704 140.918 35.2704C141.565 35.8068 142.401 36.0756 143.429 36.0756C144.565 36.0756 145.602 35.8944 146.534 35.5308L146.935 37.3068C145.845 37.782 144.559 38.0184 143.075 38.0184C141.289 38.0184 139.887 37.4928 138.867 36.4428C137.85 35.3928 137.34 33.9828 137.34 32.214C137.34 30.4776 137.814 29.0316 138.763 27.8784C139.757 26.6472 141.099 26.0316 142.789 26.0316C144.449 26.0316 145.705 26.6472 146.558 27.8784C147.234 28.8564 147.573 30.066 147.573 31.5024ZM145.134 30.8388C145.151 30.0804 144.984 29.4252 144.637 28.872C144.194 28.1604 143.514 27.8052 142.598 27.8052C141.762 27.8052 141.081 28.152 140.562 28.848C140.136 29.4012 139.883 30.0648 139.805 30.8376L145.134 30.8388Z" fill="white"/>
<path d="M59.8462 12.0108C59.8462 13.4232 59.4226 14.4864 58.5766 15.2004C57.793 15.8592 56.6794 16.1892 55.237 16.1892C54.5218 16.1892 53.9098 16.158 53.3974 16.0956V8.37841C54.0658 8.27041 54.7858 8.21521 55.5634 8.21521C56.9374 8.21521 57.973 8.51401 58.6714 9.11161C59.4538 9.78721 59.8462 10.7532 59.8462 12.0108ZM58.5202 12.0456C58.5202 11.13 58.2778 10.428 57.793 9.93841C57.3082 9.45001 56.6002 9.20521 55.6678 9.20521C55.2718 9.20521 54.9346 9.23161 54.655 9.28681V15.1536C54.8098 15.1776 55.093 15.1884 55.5046 15.1884C56.467 15.1884 57.2098 14.9208 57.733 14.3856C58.2562 13.8504 58.5202 13.0704 58.5202 12.0456Z" fill="white"/>
<path d="M66.877 13.2444C66.877 14.1144 66.6286 14.8272 66.1318 15.3864C65.611 15.9612 64.921 16.248 64.0594 16.248C63.229 16.248 62.5678 15.9732 62.0746 15.4212C61.5826 14.8704 61.3366 14.1756 61.3366 13.338C61.3366 12.462 61.5898 11.7432 62.0986 11.1852C62.6074 10.6272 63.2914 10.3476 64.153 10.3476C64.9834 10.3476 65.6506 10.6224 66.1558 11.1732C66.6358 11.7084 66.877 12.3996 66.877 13.2444ZM65.5726 13.2852C65.5726 12.7632 65.4598 12.3156 65.2354 11.9424C64.9714 11.4912 64.5958 11.2656 64.1074 11.2656C63.6022 11.2656 63.2182 11.4912 62.9542 11.9424C62.7286 12.3156 62.617 12.7704 62.617 13.308C62.617 13.83 62.7298 14.2776 62.9542 14.6508C63.2266 15.102 63.6058 15.3276 64.0954 15.3276C64.5754 15.3276 64.9522 15.0984 65.2234 14.6388C65.4562 14.2584 65.5726 13.8072 65.5726 13.2852Z" fill="white"/>
<path d="M76.3042 10.4628L74.5342 16.1196H73.3822L72.649 13.6632C72.463 13.05 72.3118 12.4404 72.1942 11.8356H72.1714C72.0622 12.4572 71.911 13.0656 71.7166 13.6632L70.9378 16.1196H69.7726L68.1082 10.4628H69.4006L70.0402 13.152C70.195 13.788 70.3222 14.394 70.4242 14.9676H70.447C70.5406 14.4948 70.6954 13.8924 70.9138 13.164L71.7166 10.464H72.7414L73.5106 13.1064C73.6966 13.7508 73.8478 14.3712 73.9642 14.9688H73.999C74.0842 14.3868 74.2126 13.7664 74.383 13.1064L75.0694 10.464H76.3042V10.4628Z" fill="white"/>
<path d="M82.8238 16.1196H81.5662V12.8796C81.5662 11.8812 81.187 11.382 80.4262 11.382C80.053 11.382 79.7518 11.5188 79.5178 11.7936C79.2862 12.0684 79.1686 12.3924 79.1686 12.7632V16.1184H77.911V12.0792C77.911 11.5824 77.8954 11.0436 77.8654 10.4604H78.9706L79.0294 11.3448H79.0642C79.2106 11.07 79.429 10.8432 79.7158 10.662C80.0566 10.4508 80.4382 10.344 80.8558 10.344C81.3838 10.344 81.823 10.5144 82.1722 10.8564C82.6066 11.2752 82.8238 11.9004 82.8238 12.7308V16.1196Z" fill="white"/>
<path d="M86.2918 16.1196H85.0354V7.86719H86.2918V16.1196Z" fill="white"/>
<path d="M93.6958 13.2444C93.6958 14.1144 93.4474 14.8272 92.9506 15.3864C92.4298 15.9612 91.7386 16.248 90.8782 16.248C90.0466 16.248 89.3854 15.9732 88.8934 15.4212C88.4014 14.8704 88.1554 14.1756 88.1554 13.338C88.1554 12.462 88.4086 11.7432 88.9174 11.1852C89.4262 10.6272 90.1102 10.3476 90.9706 10.3476C91.8022 10.3476 92.4682 10.6224 92.9746 11.1732C93.4546 11.7084 93.6958 12.3996 93.6958 13.2444ZM92.3902 13.2852C92.3902 12.7632 92.2774 12.3156 92.053 11.9424C91.7902 11.4912 91.4134 11.2656 90.9262 11.2656C90.4198 11.2656 90.0358 11.4912 89.773 11.9424C89.5474 12.3156 89.4358 12.7704 89.4358 13.308C89.4358 13.83 89.5486 14.2776 89.773 14.6508C90.0454 15.102 90.4246 15.3276 90.9142 15.3276C91.3942 15.3276 91.7698 15.0984 92.041 14.6388C92.275 14.2584 92.3902 13.8072 92.3902 13.2852Z" fill="white"/>
<path d="M99.7822 16.1196H98.653L98.5594 15.468H98.5246C98.1382 15.9876 97.5874 16.248 96.8722 16.248C96.3382 16.248 95.9062 16.0764 95.581 15.7356C95.2858 15.426 95.1382 15.0408 95.1382 14.5836C95.1382 13.8924 95.4262 13.3656 96.0058 13.0008C96.5842 12.636 97.3978 12.4572 98.4454 12.4656V12.36C98.4454 11.6148 98.0542 11.2428 97.2706 11.2428C96.7126 11.2428 96.2206 11.3832 95.7958 11.6616L95.5402 10.836C96.0658 10.5108 96.715 10.3476 97.4806 10.3476C98.959 10.3476 99.7006 11.1276 99.7006 12.6876V14.7708C99.7006 15.336 99.7282 15.786 99.7822 16.1196ZM98.4766 14.1756V13.3032C97.0894 13.2792 96.3958 13.6596 96.3958 14.4432C96.3958 14.7384 96.475 14.9592 96.637 15.1068C96.799 15.2544 97.0054 15.3276 97.2514 15.3276C97.5274 15.3276 97.7854 15.24 98.0206 15.066C98.257 14.8908 98.4022 14.6688 98.4562 14.3964C98.4694 14.3352 98.4766 14.2608 98.4766 14.1756Z" fill="white"/>
<path d="M106.928 16.1196H105.812L105.753 15.2112H105.719C105.362 15.9024 104.755 16.248 103.902 16.248C103.22 16.248 102.653 15.9804 102.203 15.4452C101.753 14.91 101.528 14.2152 101.528 13.362C101.528 12.4464 101.772 11.7048 102.261 11.1384C102.735 10.6104 103.316 10.3464 104.007 10.3464C104.767 10.3464 105.299 10.602 105.601 11.1144H105.625V7.86719H106.884V14.5956C106.884 15.1464 106.898 15.654 106.928 16.1196ZM105.625 13.734V12.7908C105.625 12.6276 105.613 12.4956 105.59 12.3948C105.519 12.0924 105.367 11.838 105.135 11.6328C104.901 11.4276 104.619 11.3244 104.294 11.3244C103.825 11.3244 103.458 11.5104 103.188 11.8836C102.92 12.2568 102.785 12.7332 102.785 13.3152C102.785 13.8744 102.913 14.328 103.171 14.6772C103.443 15.0492 103.811 15.2352 104.27 15.2352C104.683 15.2352 105.013 15.0804 105.264 14.7696C105.506 14.4828 105.625 14.1372 105.625 13.734Z" fill="white"/>
<path d="M117.684 13.2444C117.684 14.1144 117.435 14.8272 116.939 15.3864C116.418 15.9612 115.729 16.248 114.866 16.248C114.037 16.248 113.376 15.9732 112.881 15.4212C112.389 14.8704 112.143 14.1756 112.143 13.338C112.143 12.462 112.397 11.7432 112.905 11.1852C113.414 10.6272 114.098 10.3476 114.961 10.3476C115.79 10.3476 116.459 10.6224 116.963 11.1732C117.443 11.7084 117.684 12.3996 117.684 13.2444ZM116.381 13.2852C116.381 12.7632 116.268 12.3156 116.043 11.9424C115.778 11.4912 115.404 11.2656 114.914 11.2656C114.41 11.2656 114.026 11.4912 113.761 11.9424C113.535 12.3156 113.424 12.7704 113.424 13.308C113.424 13.83 113.537 14.2776 113.761 14.6508C114.033 15.102 114.413 15.3276 114.902 15.3276C115.382 15.3276 115.76 15.0984 116.031 14.6388C116.263 14.2584 116.381 13.8072 116.381 13.2852Z" fill="white"/>
<path d="M124.446 16.1196H123.189V12.8796C123.189 11.8812 122.81 11.382 122.048 11.382C121.675 11.382 121.374 11.5188 121.141 11.7936C120.908 12.0684 120.792 12.3924 120.792 12.7632V16.1184H119.533V12.0792C119.533 11.5824 119.519 11.0436 119.489 10.4604H120.593L120.651 11.3448H120.686C120.834 11.07 121.052 10.8432 121.338 10.662C121.68 10.4508 122.06 10.344 122.479 10.344C123.006 10.344 123.445 10.5144 123.794 10.8564C124.23 11.2752 124.446 11.9004 124.446 12.7308V16.1196Z" fill="white"/>
<path d="M132.909 11.4048H131.525V14.1528C131.525 14.8512 131.771 15.2004 132.258 15.2004C132.483 15.2004 132.671 15.1812 132.818 15.1416L132.851 16.0956C132.602 16.1892 132.276 16.236 131.874 16.236C131.377 16.236 130.991 16.0848 130.711 15.7824C130.43 15.48 130.291 14.9712 130.291 14.2572V11.4048H129.464V10.4628H130.291V9.42602L131.523 9.05402V10.4616H132.908L132.909 11.4048Z" fill="white"/>
<path d="M139.567 16.1196H138.308V12.9036C138.308 11.8896 137.929 11.382 137.169 11.382C136.586 11.382 136.188 11.676 135.969 12.264C135.932 12.3876 135.911 12.5388 135.911 12.7164V16.1184H134.654V7.86719H135.911V11.2764H135.935C136.331 10.656 136.898 10.3464 137.634 10.3464C138.155 10.3464 138.585 10.5168 138.927 10.8588C139.353 11.2848 139.567 11.9184 139.567 12.756V16.1196Z" fill="white"/>
<path d="M146.435 13.0236C146.435 13.2492 146.418 13.4388 146.388 13.5936H142.616C142.633 14.1528 142.813 14.5788 143.162 14.874C143.481 15.138 143.893 15.27 144.397 15.27C144.955 15.27 145.464 15.1812 145.922 15.0024L146.119 15.876C145.583 16.1088 144.951 16.2252 144.221 16.2252C143.345 16.2252 142.655 15.9672 142.155 15.4512C141.654 14.9352 141.405 14.2428 141.405 13.374C141.405 12.5208 141.637 11.8104 142.104 11.244C142.591 10.6392 143.25 10.3368 144.081 10.3368C144.895 10.3368 145.513 10.6392 145.931 11.244C146.268 11.724 146.435 12.318 146.435 13.0236ZM145.235 12.6984C145.244 12.3252 145.161 12.0036 144.991 11.7324C144.773 11.3832 144.44 11.208 143.99 11.208C143.58 11.208 143.245 11.3784 142.989 11.7204C142.781 11.9928 142.657 12.318 142.616 12.6984H145.235Z" fill="white"/>
</g>
</g>
<defs>
<clipPath id="clip0_0_80">
<rect width="162" height="48" fill="white" transform="translate(0.986206)"/>
</clipPath>
<clipPath id="clip1_0_80">
<rect width="162" height="48" fill="white" transform="translate(0.986206)"/>
</clipPath>
</defs>
</svg>
