<svg width="164" height="48" viewBox="0 0 164 48" fill="none" xmlns="http://www.w3.org/2000/svg">
<g clip-path="url(#clip0_0_113)">
<g clip-path="url(#clip1_0_113)">
<g clip-path="url(#clip2_0_113)">
<path fill-rule="evenodd" clip-rule="evenodd" d="M157.62 47.9989H7.01287C3.69132 47.9989 0.986206 45.2938 0.986206 41.9992V6.00083C0.986206 2.69424 3.69132 0.00109863 7.01287 0.00109863H157.62C160.938 0.00109863 163.646 2.69424 163.646 6.00083V41.9992C163.646 45.2938 160.938 47.9989 157.62 47.9989Z" fill="black"/>
<path d="M157.62 0.961654C160.405 0.961654 162.686 3.22689 162.686 6.00083V41.9992C162.686 44.7731 160.42 47.0384 157.62 47.0384H7.01287C4.22696 47.0384 1.94676 44.7731 1.94676 41.9992V6.00083C1.94676 3.22689 4.212 0.961654 7.01287 0.961654H157.62ZM157.62 0.00109863H7.01287C3.69132 0.00109863 0.986206 2.70621 0.986206 6.00083V41.9992C0.986206 45.3058 3.69132 47.9989 7.01287 47.9989H157.62C160.938 47.9989 163.646 45.3058 163.646 41.9992V6.00083C163.646 2.70621 160.938 0.00109863 157.62 0.00109863Z" fill="black"/>
<path d="M86.6761 15.8787C85.5899 15.8787 84.6742 15.4987 83.95 14.7506C83.2319 14.0234 82.8309 13.021 82.8489 11.9976C82.8489 10.9054 83.2199 9.98071 83.95 9.24757C84.6712 8.49948 85.5869 8.11945 86.6731 8.11945C87.7474 8.11945 88.6631 8.49948 89.3992 9.24757C90.1293 10.0046 90.5004 10.9293 90.5004 11.9976C90.4884 13.0928 90.1174 14.0174 89.3992 14.7476C88.678 15.5017 87.7623 15.8787 86.6761 15.8787ZM54.3554 15.8787C53.2931 15.8787 52.3714 15.5046 51.6173 14.7655C50.8692 14.0294 50.4892 13.0988 50.4892 12.0006C50.4892 10.9024 50.8692 9.97173 51.6173 9.23561C52.3565 8.49649 53.2781 8.12244 54.3554 8.12244C54.882 8.12244 55.3937 8.22717 55.8845 8.43963C56.3663 8.64611 56.7583 8.92739 57.0485 9.27151L57.1203 9.35829L56.3094 10.1543L56.2256 10.0555C55.7678 9.5109 55.1543 9.24458 54.3434 9.24458C53.6192 9.24458 52.9879 9.50193 52.4672 10.0106C51.9435 10.5223 51.6772 11.1926 51.6772 12.0036C51.6772 12.8145 51.9435 13.4848 52.4672 13.9965C52.9879 14.5052 53.6192 14.7625 54.3434 14.7625C55.1154 14.7625 55.7648 14.5052 56.2705 13.9965C56.5697 13.6973 56.7553 13.2783 56.8211 12.7487H54.2207V11.6295H57.9373L57.9522 11.7313C57.9791 11.9198 58.0061 12.1143 58.0061 12.2938C58.0061 13.3262 57.6949 14.1611 57.0784 14.7775C56.3782 15.5076 55.4626 15.8787 54.3554 15.8787ZM97.329 15.7201H96.1829L92.6728 10.1034L92.7028 11.1148V15.7171H91.5567V8.28104H92.8644L92.9003 8.33789L96.2009 13.6284L96.1709 12.62V8.28104H97.329V15.7201ZM78.064 15.7201H76.903V9.40019H74.8891V8.28104H80.0749V9.40019H78.061V15.7201H78.064ZM73.9435 15.7201H72.7855V8.28104H73.9435V15.7201ZM67.4351 15.7201H66.277V9.40019H64.2632V8.28104H69.449V9.40019H67.4351V15.7201ZM63.53 15.7081H59.0893V8.28104H63.53V9.40019H60.2504V11.441H63.2098V12.5482H60.2504V14.589H63.53V15.7081ZM84.7999 13.9815C85.3176 14.4992 85.946 14.7595 86.6761 14.7595C87.4272 14.7595 88.0406 14.5052 88.5523 13.9815C89.061 13.4728 89.3184 12.8055 89.3184 12.0006C89.3184 11.1956 89.061 10.5253 88.5553 10.0196C88.0376 9.50193 87.4062 9.24159 86.6791 9.24159C85.928 9.24159 85.3146 9.49594 84.8059 10.0196C84.2972 10.5283 84.0398 11.1956 84.0398 12.0006C84.0398 12.8055 84.2942 13.4758 84.7999 13.9815Z" fill="white"/>
<path fill-rule="evenodd" clip-rule="evenodd" d="M82.7411 26.1067C79.9133 26.1067 77.6212 28.2522 77.6212 31.2117C77.6212 34.1442 79.9283 36.3167 82.7411 36.3167C85.5689 36.3167 87.8611 34.1562 87.8611 31.2117C87.8611 28.2522 85.5689 26.1067 82.7411 26.1067ZM82.7411 34.2938C81.1941 34.2938 79.8625 33.0131 79.8625 31.1997C79.8625 29.3594 81.1971 28.1056 82.7411 28.1056C84.2882 28.1056 85.6198 29.3594 85.6198 31.1997C85.6228 33.0251 84.2882 34.2938 82.7411 34.2938ZM71.5706 26.1067C68.7428 26.1067 66.4506 28.2522 66.4506 31.2117C66.4506 34.1442 68.7577 36.3167 71.5706 36.3167C74.3984 36.3167 76.6905 34.1562 76.6905 31.2117C76.6905 28.2522 74.3954 26.1067 71.5706 26.1067ZM71.5706 34.2938C70.0235 34.2938 68.6919 33.0131 68.6919 31.1997C68.6919 29.3594 70.0265 28.1056 71.5706 28.1056C73.1176 28.1056 74.4492 29.3594 74.4492 31.1997C74.4492 33.0251 73.1176 34.2938 71.5706 34.2938ZM58.2784 27.6657V29.8262H63.4642C63.3056 31.0381 62.9046 31.9328 62.2912 32.5463C61.5311 33.3063 60.3581 34.1322 58.2904 34.1322C55.1035 34.1322 52.6108 31.5588 52.6108 28.3719C52.6108 25.185 55.1035 22.6116 58.2904 22.6116C60.011 22.6116 61.2648 23.2908 62.1954 24.1586L63.7275 22.6265C62.4348 21.3877 60.7142 20.4391 58.3023 20.4391C53.9305 20.4391 50.2618 24 50.2618 28.3599C50.2618 32.7318 53.9275 36.2808 58.3023 36.2808C60.6633 36.2808 62.4348 35.5087 63.8353 34.0544C65.2626 32.6271 65.7145 30.6132 65.7145 28.9883C65.7145 28.4826 65.6756 28.0278 65.5948 27.6418H58.2754C58.2784 27.6388 58.2784 27.6657 58.2784 27.6657ZM112.647 29.3474C112.219 28.2013 110.926 26.0947 108.275 26.0947C105.648 26.0947 103.463 28.1624 103.463 31.1997C103.463 34.0664 105.624 36.3047 108.529 36.3047C110.864 36.3047 112.222 34.8773 112.782 34.0395L111.049 32.8784C110.475 33.7313 109.676 34.2908 108.541 34.2908C107.395 34.2908 106.593 33.7702 106.061 32.7438L112.886 29.916C112.886 29.919 112.647 29.3474 112.647 29.3474ZM105.687 31.0531C105.633 29.0811 107.219 28.0786 108.353 28.0786C109.248 28.0786 109.993 28.5185 110.247 29.1589L105.687 31.0531ZM100.142 35.9995H102.383V21.0017H100.142V35.9995ZM96.4612 27.2408H96.3804C95.8747 26.6393 94.9141 26.0947 93.6873 26.0947C91.1408 26.0947 88.7947 28.336 88.7947 31.2147C88.7947 34.0814 91.1288 36.2957 93.6873 36.2957C94.8992 36.2957 95.8747 35.7481 96.3804 35.1347H96.4612V35.8678C96.4612 37.8159 95.4199 38.8662 93.7411 38.8662C92.3676 38.8662 91.5148 37.8787 91.1677 37.0528L89.2196 37.8667C89.7792 39.2133 91.2724 40.8801 93.7381 40.8801C96.3655 40.8801 98.5918 39.333 98.5918 35.5596V26.3999H96.4732V27.2408C96.4762 27.2408 96.4612 27.2408 96.4612 27.2408ZM93.8878 34.2938C92.3407 34.2938 91.048 33.0011 91.048 31.2147C91.048 29.4132 92.3407 28.1086 93.8878 28.1086C95.4199 28.1086 96.6078 29.4282 96.6078 31.2147C96.6228 33.0011 95.4229 34.2938 93.8878 34.2938ZM123.141 21.0017H117.782V35.9995H120.023V30.3199H123.144C125.625 30.3199 128.064 28.5215 128.064 25.6668C128.064 22.812 125.634 21.0017 123.141 21.0017ZM123.207 28.2253H120.02V23.0784H123.207C124.886 23.0784 125.834 24.4638 125.834 25.6518C125.834 26.8278 124.874 28.2253 123.207 28.2253ZM137.047 26.0797C135.419 26.0797 133.74 26.8009 133.046 28.3719L135.033 29.1978C135.461 28.3719 136.245 28.0906 137.074 28.0906C138.235 28.0906 139.408 28.7848 139.435 30.0237V30.1823C139.034 29.9549 138.154 29.6078 137.101 29.6078C134.955 29.6078 132.78 30.7808 132.78 32.9802C132.78 34.994 134.539 36.2868 136.499 36.2868C138.004 36.2868 138.833 35.6075 139.351 34.8205H139.432V35.9815H141.592V30.2362C141.592 27.561 139.605 26.0797 137.047 26.0797ZM136.766 34.2938C136.033 34.2938 135.006 33.9347 135.006 33.0131C135.006 31.852 136.287 31.4122 137.379 31.4122C138.367 31.4122 138.833 31.6246 139.42 31.9179C139.258 33.2644 138.121 34.2819 136.766 34.2938ZM149.474 26.3999L146.901 32.9054H146.82L144.154 26.3999H141.742L145.743 35.4938L143.463 40.5479H145.797L151.952 26.3999H149.474ZM129.3 35.9995H131.541V21.0017H129.3V35.9995Z" fill="white"/>
<path d="M13.5063 9.04106C13.1592 9.41511 12.9587 9.98665 12.9587 10.7348V37.2682C12.9587 38.0163 13.1592 38.5879 13.5183 38.9469L13.6111 39.0277L28.4772 24.1616V23.8294L13.5991 8.96027L13.5063 9.04106Z" fill="white" stroke="black" stroke-width="0.0598477"/>
<path d="M33.4237 29.132L28.4653 24.1736V23.8265L33.4237 18.8681L33.5314 18.9339L39.3964 22.2675C41.0752 23.213 41.0752 24.7751 39.3964 25.7326L33.5314 29.0661L33.4237 29.132Z" fill="white" stroke="black" stroke-width="0.0598477"/>
<path d="M33.5314 29.0661L28.4653 24L13.5063 38.9589C14.054 39.5454 14.9726 39.6113 15.999 39.0397L33.5314 29.0661Z" fill="white" stroke="black" stroke-width="0.0598477"/>
<path d="M33.5314 18.9339L15.999 8.97523C14.9726 8.38873 14.051 8.46952 13.5063 9.05603L28.4653 24L33.5314 18.9339Z" fill="white" stroke="black" stroke-width="0.0598477"/>
<path opacity="0.2" fill-rule="evenodd" clip-rule="evenodd" d="M33.4236 28.9584L16.011 38.8512C15.0384 39.4108 14.1707 39.3719 13.6111 38.8632L13.5183 38.9559L13.6111 39.0367C14.1707 39.5424 15.0384 39.5843 16.011 39.0248L33.5433 29.0661L33.4236 28.9584Z" fill="black"/>
<path opacity="0.12" fill-rule="evenodd" clip-rule="evenodd" d="M39.3965 25.559L33.4087 28.9584L33.5164 29.0661L39.3815 25.7326C40.2223 25.2538 40.6353 24.6254 40.6353 24C40.5844 24.5745 40.1565 25.1192 39.3965 25.559Z" fill="black"/>
<path opacity="0.25" fill-rule="evenodd" clip-rule="evenodd" d="M15.999 9.14883L39.3965 22.441C40.1565 22.8689 40.5844 23.4285 40.6503 24C40.6503 23.3746 40.2373 22.7462 39.3965 22.2674L15.999 8.97527C14.3203 8.01472 12.9587 8.81668 12.9587 10.7348V10.9084C12.9587 8.98724 14.3203 8.20024 15.999 9.14883Z" fill="white"/>
</g>
</g>
</g>
<defs>
<clipPath id="clip0_0_113">
<rect width="162.66" height="48" fill="white" transform="translate(0.986206)"/>
</clipPath>
<clipPath id="clip1_0_113">
<rect width="162.66" height="48" fill="white" transform="translate(0.986206)"/>
</clipPath>
<clipPath id="clip2_0_113">
<rect width="162.66" height="47.9978" fill="white" transform="translate(0.986206 0.00109863)"/>
</clipPath>
</defs>
</svg>
