<svg width="89" height="88" viewBox="0 0 89 88" fill="none" xmlns="http://www.w3.org/2000/svg">
<path d="M44.2656 0C35.6127 0 27.1541 2.56589 19.9594 7.3732C12.7648 12.1805 7.15725 19.0133 3.84591 27.0076C0.534581 35.0019 -0.331815 43.7985 1.35629 52.2852C3.04439 60.7719 7.21117 68.5674 13.3297 74.6859C19.4483 80.8045 27.2438 84.9713 35.7304 86.6594C44.2171 88.3475 53.0138 87.4811 61.008 84.1697C69.0023 80.8584 75.8351 75.2508 80.6424 68.0562C85.4498 60.8615 88.0156 52.4029 88.0156 43.75C88.0156 32.1468 83.4063 21.0188 75.2016 12.8141C66.9968 4.60936 55.8689 0 44.2656 0ZM67.5375 46.5469L30.0375 65.2969C29.561 65.535 29.0315 65.6474 28.4993 65.6233C27.9671 65.5992 27.4499 65.4394 26.9968 65.1592C26.5437 64.8789 26.1698 64.4875 25.9106 64.0221C25.6513 63.5567 25.5154 63.0327 25.5156 62.5V25C25.5159 24.4675 25.6523 23.944 25.9117 23.479C26.1712 23.014 26.5451 22.623 26.9981 22.3431C27.4511 22.0633 27.9681 21.9038 28.5 21.8798C29.032 21.8559 29.5612 21.9682 30.0375 22.2062L67.5375 40.9562C68.0559 41.2161 68.4918 41.615 68.7964 42.1084C69.101 42.6017 69.2623 43.1702 69.2623 43.75C69.2623 44.3298 69.101 44.8983 68.7964 45.3916C68.4918 45.885 68.0559 46.2839 67.5375 46.5437" fill="#264CAF"/>
</svg>
