<svg width="359" height="62" viewBox="0 0 359 62" fill="none" xmlns="http://www.w3.org/2000/svg">
<g clip-path="url(#clip0_0_30)">
<path opacity="0.4" d="M353.801 43.3789C352.934 43.3873 352.085 43.859 351.35 44.7413C350.614 45.6237 350.019 46.8821 349.633 48.3765L284.468 0.420898H284.383H0.484375V2.2251H284.215L349.295 50.0544C349.184 50.8182 349.124 51.6066 349.118 52.3999C349.118 54.1841 349.392 55.9282 349.907 57.4117C350.421 58.8952 351.153 60.0514 352.009 60.7342C352.864 61.417 353.806 61.5956 354.715 61.2476C355.623 60.8995 356.458 60.0403 357.113 58.7787C357.768 57.5171 358.214 55.9097 358.394 54.1598C358.575 52.4099 358.482 50.5961 358.128 48.9477C357.773 47.2993 357.173 45.8905 356.403 44.8992C355.633 43.908 354.727 43.3789 353.801 43.3789ZM353.801 57.8125C353.245 57.8125 352.702 57.4951 352.24 56.9003C351.778 56.3056 351.417 55.4602 351.205 54.4712C350.992 53.4822 350.936 52.3939 351.045 51.344C351.153 50.294 351.421 49.3296 351.814 48.5726C352.207 47.8156 352.708 47.3001 353.253 47.0913C353.798 46.8825 354.363 46.9896 354.876 47.3993C355.39 47.809 355.829 48.5027 356.137 49.3928C356.446 50.2829 356.611 51.3294 356.611 52.3999C356.611 53.8354 356.315 55.2121 355.788 56.2272C355.261 57.2422 354.546 57.8125 353.801 57.8125Z" fill="#A69A2F"/>
</g>
<defs>
<clipPath id="clip0_0_30">
<rect width="358" height="61" fill="white" transform="translate(0.484375 0.420898)"/>
</clipPath>
</defs>
</svg>
