<svg width="396" height="63" viewBox="0 0 396 63" fill="none" xmlns="http://www.w3.org/2000/svg">
<path opacity="0.4" d="M0 53.6832C0 56.1542 0.584397 58.5239 1.62463 60.2712C2.66486 62.0184 4.07572 63 5.54683 63C7.01795 63 8.4288 62.0184 9.46904 60.2712C10.5093 58.5239 11.0937 56.1542 11.0937 53.6832C11.0859 52.8639 11.015 52.0497 10.8829 51.2609L87.9617 1.86335H424V0H87.762H87.64L10.4835 49.5279C9.91814 47.6738 8.99912 46.1915 7.87327 45.3176C6.74742 44.4438 5.4797 44.229 4.27262 44.7074C3.06554 45.1859 1.98874 46.33 1.21425 47.957C0.439748 49.5841 0.0122356 51.6002 0 53.6832ZM2.21873 53.6832C2.21873 52.5776 2.41392 51.4968 2.77962 50.5776C3.14532 49.6583 3.66509 48.9418 4.27322 48.5187C4.88136 48.0956 5.55053 47.9849 6.19611 48.2006C6.8417 48.4163 7.43471 48.9487 7.90016 49.7305C8.3656 50.5122 8.68257 51.5083 8.81099 52.5927C8.9394 53.677 8.87349 54.801 8.6216 55.8225C8.3697 56.8439 7.94313 57.7169 7.39583 58.3312C6.84852 58.9454 6.20507 59.2733 5.54683 59.2733C4.66417 59.2733 3.81765 58.6843 3.19351 57.636C2.56937 56.5877 2.21873 55.1658 2.21873 53.6832Z" fill="#A69A2F"/>
</svg>
