<svg width="25" height="25" viewBox="0 0 25 25" fill="none" xmlns="http://www.w3.org/2000/svg">
<path d="M21.3012 21.3017H17.597V15.5005C17.597 14.1172 17.5723 12.3364 15.6704 12.3364C13.7411 12.3364 13.4459 13.8436 13.4459 15.3998V21.3013H9.74169V9.37176H13.2977V11.0021H13.3475C13.7034 10.3936 14.2177 9.89298 14.8355 9.55364C15.4534 9.21429 16.1517 9.04888 16.8561 9.07503C20.6105 9.07503 21.3027 11.5446 21.3027 14.7573L21.3012 21.3017ZM5.56211 7.74108C5.13696 7.74116 4.72132 7.61516 4.36778 7.37901C4.01424 7.14287 3.73868 6.80718 3.57591 6.41441C3.41314 6.02163 3.37048 5.58941 3.45335 5.1724C3.53622 4.75539 3.74089 4.37232 4.04146 4.07163C4.34203 3.77094 4.72502 3.56613 5.14199 3.48311C5.55896 3.40009 5.99117 3.44258 6.38399 3.60521C6.7768 3.76785 7.11257 4.04332 7.34884 4.39679C7.5851 4.75026 7.71126 5.16585 7.71133 5.59102C7.71138 5.87332 7.65582 6.15286 7.54784 6.41369C7.43986 6.67452 7.28158 6.91153 7.08201 7.11118C6.88243 7.31083 6.64548 7.46922 6.38469 7.5773C6.12391 7.68538 5.8444 7.74103 5.56211 7.74108ZM7.41422 21.3017H3.70614V9.37176H7.41422V21.3017ZM23.1479 0.00170329H1.84478C1.36126 -0.00375342 0.895331 0.182983 0.549417 0.520877C0.203502 0.858772 0.0059011 1.32018 0 1.80371V23.1959C0.00569913 23.6797 0.203184 24.1414 0.549087 24.4797C0.89499 24.8179 1.36102 25.005 1.84478 24.9999H23.1479C23.6326 25.0059 24.0999 24.8194 24.4472 24.4811C24.7945 24.1429 24.9933 23.6806 25 23.1959V1.80217C24.9931 1.31768 24.7941 0.855745 24.4469 0.517858C24.0996 0.179972 23.6324 -0.00623066 23.1479 0.000159189" fill="#0A66C2"/>
</svg>
