<svg width="25" height="25" viewBox="0 0 25 25" fill="none" xmlns="http://www.w3.org/2000/svg">
<path fill-rule="evenodd" clip-rule="evenodd" d="M21.3574 3.63286C19.0076 1.29134 15.8824 0.00118799 12.5525 0C5.69104 0 0.106837 5.55682 0.10445 12.3871C0.103256 14.5706 0.676837 16.7019 1.7661 18.5801L0 25L6.59886 23.2774C8.41687 24.2647 10.4641 24.7844 12.5472 24.785H12.5525C19.4128 24.785 24.9976 19.2276 25 12.3972C25.0012 9.08694 23.7078 5.97499 21.3574 3.63346V3.63286ZM12.5525 22.6929H12.5483C10.6921 22.6924 8.87111 22.1957 7.28229 21.2578L6.90446 21.0345L2.98847 22.0568L4.03357 18.257L3.78766 17.8673C2.75211 16.2279 2.20479 14.333 2.20599 12.3878C2.20837 6.71094 6.84954 2.09204 12.5567 2.09204C15.3201 2.09323 17.9177 3.1654 19.8712 5.11191C21.8247 7.05784 22.8997 9.64529 22.8985 12.3961C22.896 18.0735 18.2549 22.6924 12.5525 22.6924V22.6929ZM18.2274 14.9817C17.9165 14.8267 16.3874 14.0782 16.102 13.9749C15.8167 13.8715 15.6097 13.8199 15.4025 14.1299C15.1954 14.44 14.5992 15.1374 14.4177 15.3434C14.2362 15.5502 14.0548 15.5757 13.7438 15.4206C13.4329 15.2656 12.4308 14.9389 11.2424 13.8846C10.3179 13.0637 9.69354 12.0504 9.51215 11.7403C9.33069 11.4302 9.49306 11.2627 9.64819 11.1089C9.78785 10.9699 9.95917 10.7471 10.1149 10.5665C10.2708 10.386 10.3221 10.2565 10.4259 10.0504C10.5298 9.84364 10.4778 9.66313 10.4003 9.50804C10.3226 9.35302 9.70076 7.8294 9.44111 7.20989C9.18861 6.6064 8.93201 6.68837 8.7416 6.67828C8.56014 6.66936 8.35306 6.66758 8.14535 6.66758C7.93764 6.66758 7.60097 6.7448 7.31569 7.05487C7.03042 7.3649 6.22702 8.11393 6.22702 9.63693C6.22702 11.1599 7.34139 12.6325 7.49715 12.8392C7.65292 13.0459 9.69055 16.1721 12.8103 17.5133C13.5523 17.8323 14.1318 18.023 14.5836 18.1655C15.3285 18.4013 16.0065 18.3681 16.5425 18.2885C17.14 18.1994 18.3826 17.5394 18.6417 16.8165C18.9007 16.0936 18.9007 15.4735 18.8231 15.3446C18.7456 15.2157 18.5378 15.1379 18.2269 14.9829L18.2274 14.9817Z" fill="#25D366"/>
</svg>
